<?xml version="1.0" encoding="UTF-8" standalone="no"?>
<!DOCTYPE svg PUBLIC "-//W3C//DTD SVG 1.1//EN"
 "http://www.w3.org/Graphics/SVG/1.1/DTD/svg11.dtd">
<!-- Generated by graphviz version 2.43.0 (0)
 -->
<!-- Title: PimplClass Pages: 1 -->
<svg width="207pt" height="403pt"
 viewBox="0.00 0.00 206.50 403.00" xmlns="http://www.w3.org/2000/svg" xmlns:xlink="http://www.w3.org/1999/xlink">
<g id="graph0" class="graph" transform="scale(1 1) rotate(0) translate(4 399)">
<title>PimplClass</title>
<polygon fill="white" stroke="transparent" points="-4,4 -4,-399 202.5,-399 202.5,4 -4,4"/>
<!-- Node1 -->
<g id="node1" class="node">
<title>Node1</title>
<g id="a_node1"><a xlink:title="PimplClass.">
<polygon fill="#bfbfbf" stroke="black" points="28.5,-0.5 28.5,-68.5 126.5,-68.5 126.5,-0.5 28.5,-0.5"/>
<text text-anchor="middle" x="77.5" y="-56.5" font-family="Helvetica,sans-Serif" font-size="10.00">PimplClass</text>
<polyline fill="none" stroke="black" points="28.5,-49.5 126.5,-49.5 "/>
<text text-anchor="middle" x="77.5" y="-37.5" font-family="Helvetica,sans-Serif" font-size="10.00"> </text>
<polyline fill="none" stroke="black" points="28.5,-30.5 126.5,-30.5 "/>
<text text-anchor="start" x="36.5" y="-18.5" font-family="Helvetica,sans-Serif" font-size="10.00">+ ~PimplClass()</text>
<text text-anchor="start" x="36.5" y="-7.5" font-family="Helvetica,sans-Serif" font-size="10.00"># PimplClass()</text>
</a>
</g>
</g>
<!-- Node2 -->
<g id="node2" class="node">
<title>Node2</title>
<g id="a_node2"><a xlink:title=" ">
<polygon fill="white" stroke="#bfbfbf" points="0,-116.5 0,-184.5 155,-184.5 155,-116.5 0,-116.5"/>
<text text-anchor="start" x="8" y="-172.5" font-family="Helvetica,sans-Serif" font-size="10.00">std::unique_ptr&lt; PimplClass</text>
<text text-anchor="middle" x="77.5" y="-161.5" font-family="Helvetica,sans-Serif" font-size="10.00">::Private &gt;</text>
<polyline fill="none" stroke="#bfbfbf" points="0,-154.5 155,-154.5 "/>
<text text-anchor="start" x="8" y="-142.5" font-family="Helvetica,sans-Serif" font-size="10.00">+ ptr</text>
<polyline fill="none" stroke="#bfbfbf" points="0,-135.5 155,-135.5 "/>
<text text-anchor="start" x="8" y="-123.5" font-family="Helvetica,sans-Serif" font-size="10.00">+ operator&#45;&gt;()</text>
</a>
</g>
</g>
<!-- Node2&#45;&gt;Node1 -->
<g id="edge1" class="edge">
<title>Node2&#45;&gt;Node1</title>
<path fill="none" stroke="#404040" d="M77.5,-116.22C77.5,-105.1 77.5,-92.51 77.5,-80.64"/>
<polygon fill="none" stroke="#404040" points="77.5,-80.62 73.5,-74.62 77.5,-68.62 81.5,-74.62 77.5,-80.62"/>
<text text-anchor="middle" x="96" y="-90" font-family="Helvetica,sans-Serif" font-size="10.00"> #d_ptr</text>
</g>
<!-- Node3 -->
<g id="node3" class="node">
<title>Node3</title>
<g id="a_node3"><a xlink:title=" ">
<polygon fill="white" stroke="#bfbfbf" points="18.5,-232.5 18.5,-289.5 136.5,-289.5 136.5,-232.5 18.5,-232.5"/>
<text text-anchor="middle" x="77.5" y="-277.5" font-family="Helvetica,sans-Serif" font-size="10.00">std::unique_ptr&lt; T &gt;</text>
<polyline fill="none" stroke="#bfbfbf" points="18.5,-270.5 136.5,-270.5 "/>
<text text-anchor="middle" x="77.5" y="-258.5" font-family="Helvetica,sans-Serif" font-size="10.00"> </text>
<polyline fill="none" stroke="#bfbfbf" points="18.5,-251.5 136.5,-251.5 "/>
<text text-anchor="start" x="26.5" y="-239.5" font-family="Helvetica,sans-Serif" font-size="10.00">+ operator&#45;&gt;()</text>
</a>
</g>
</g>
<!-- Node3&#45;&gt;Node2 -->
<g id="edge2" class="edge">
<title>Node3&#45;&gt;Node2</title>
<path fill="none" stroke="orange" d="M77.5,-221.99C77.5,-209.77 77.5,-196.35 77.5,-184.52"/>
<polygon fill="orange" stroke="orange" points="74,-222.34 77.5,-232.34 81,-222.34 74,-222.34"/>
<text text-anchor="middle" x="138" y="-206" font-family="Helvetica,sans-Serif" font-size="10.00"> &lt; PimplClass::Private &gt;</text>
</g>
<!-- Node4 -->
<g id="node4" class="node">
<title>Node4</title>
<g id="a_node4"><a xlink:title=" ">
<polygon fill="white" stroke="#bfbfbf" points="63,-337.5 63,-394.5 92,-394.5 92,-337.5 63,-337.5"/>
<text text-anchor="middle" x="77.5" y="-382.5" font-family="Helvetica,sans-Serif" font-size="10.00">T</text>
<polyline fill="none" stroke="#bfbfbf" points="63,-375.5 92,-375.5 "/>
<text text-anchor="middle" x="77.5" y="-363.5" font-family="Helvetica,sans-Serif" font-size="10.00"> </text>
<polyline fill="none" stroke="#bfbfbf" points="63,-356.5 92,-356.5 "/>
<text text-anchor="middle" x="77.5" y="-344.5" font-family="Helvetica,sans-Serif" font-size="10.00"> </text>
</a>
</g>
</g>
<!-- Node4&#45;&gt;Node3 -->
<g id="edge3" class="edge">
<title>Node4&#45;&gt;Node3</title>
<path fill="none" stroke="#404040" d="M77.5,-337.4C77.5,-326.55 77.5,-313.87 77.5,-302.05"/>
<polygon fill="none" stroke="#404040" points="77.5,-301.68 73.5,-295.68 77.5,-289.68 81.5,-295.68 77.5,-301.68"/>
<text text-anchor="middle" x="90" y="-311" font-family="Helvetica,sans-Serif" font-size="10.00"> +ptr</text>
</g>
</g>
</svg>
