<?xml version="1.0" encoding="UTF-8" standalone="no"?>
<!DOCTYPE svg PUBLIC "-//W3C//DTD SVG 1.1//EN"
 "http://www.w3.org/Graphics/SVG/1.1/DTD/svg11.dtd">
<!-- Generated by graphviz version 2.43.0 (0)
 -->
<!-- Title: PimplClass Pages: 1 -->
<svg width="207pt" height="425pt"
 viewBox="0.00 0.00 206.50 425.00" xmlns="http://www.w3.org/2000/svg" xmlns:xlink="http://www.w3.org/1999/xlink">
<g id="graph0" class="graph" transform="scale(1 1) rotate(0) translate(4 421)">
<title>PimplClass</title>
<polygon fill="white" stroke="transparent" points="-4,4 -4,-421 202.5,-421 202.5,4 -4,4"/>
<!-- Node1 -->
<g id="node1" class="node">
<title>Node1</title>
<g id="a_node1"><a xlink:title="PimplClass.">
<polygon fill="#bfbfbf" stroke="black" points="28.5,-0.5 28.5,-90.5 126.5,-90.5 126.5,-0.5 28.5,-0.5"/>
<text text-anchor="middle" x="77.5" y="-78.5" font-family="Helvetica,sans-Serif" font-size="10.00">PimplClass</text>
<polyline fill="none" stroke="black" points="28.5,-71.5 126.5,-71.5 "/>
<text text-anchor="middle" x="77.5" y="-59.5" font-family="Helvetica,sans-Serif" font-size="10.00"> </text>
<polyline fill="none" stroke="black" points="28.5,-52.5 126.5,-52.5 "/>
<text text-anchor="start" x="36.5" y="-40.5" font-family="Helvetica,sans-Serif" font-size="10.00">+ ~PimplClass()</text>
<text text-anchor="start" x="36.5" y="-29.5" font-family="Helvetica,sans-Serif" font-size="10.00">+ isNull()</text>
<text text-anchor="start" x="36.5" y="-18.5" font-family="Helvetica,sans-Serif" font-size="10.00">+ clear()</text>
<text text-anchor="start" x="36.5" y="-7.5" font-family="Helvetica,sans-Serif" font-size="10.00"># PimplClass()</text>
</a>
</g>
</g>
<!-- Node2 -->
<g id="node2" class="node">
<title>Node2</title>
<g id="a_node2"><a xlink:title=" ">
<polygon fill="white" stroke="#bfbfbf" points="0,-138.5 0,-206.5 155,-206.5 155,-138.5 0,-138.5"/>
<text text-anchor="start" x="8" y="-194.5" font-family="Helvetica,sans-Serif" font-size="10.00">std::unique_ptr&lt; PimplClass</text>
<text text-anchor="middle" x="77.5" y="-183.5" font-family="Helvetica,sans-Serif" font-size="10.00">::Private &gt;</text>
<polyline fill="none" stroke="#bfbfbf" points="0,-176.5 155,-176.5 "/>
<text text-anchor="start" x="8" y="-164.5" font-family="Helvetica,sans-Serif" font-size="10.00">+ ptr</text>
<polyline fill="none" stroke="#bfbfbf" points="0,-157.5 155,-157.5 "/>
<text text-anchor="start" x="8" y="-145.5" font-family="Helvetica,sans-Serif" font-size="10.00">+ operator&#45;&gt;()</text>
</a>
</g>
</g>
<!-- Node2&#45;&gt;Node1 -->
<g id="edge1" class="edge">
<title>Node2&#45;&gt;Node1</title>
<path fill="none" stroke="#404040" d="M77.5,-138.33C77.5,-127.37 77.5,-114.86 77.5,-102.67"/>
<polygon fill="none" stroke="#404040" points="77.5,-102.66 73.5,-96.66 77.5,-90.66 81.5,-96.66 77.5,-102.66"/>
<text text-anchor="middle" x="96" y="-112" font-family="Helvetica,sans-Serif" font-size="10.00"> #d_ptr</text>
</g>
<!-- Node3 -->
<g id="node3" class="node">
<title>Node3</title>
<g id="a_node3"><a xlink:title=" ">
<polygon fill="white" stroke="#bfbfbf" points="18.5,-254.5 18.5,-311.5 136.5,-311.5 136.5,-254.5 18.5,-254.5"/>
<text text-anchor="middle" x="77.5" y="-299.5" font-family="Helvetica,sans-Serif" font-size="10.00">std::unique_ptr&lt; T &gt;</text>
<polyline fill="none" stroke="#bfbfbf" points="18.5,-292.5 136.5,-292.5 "/>
<text text-anchor="middle" x="77.5" y="-280.5" font-family="Helvetica,sans-Serif" font-size="10.00"> </text>
<polyline fill="none" stroke="#bfbfbf" points="18.5,-273.5 136.5,-273.5 "/>
<text text-anchor="start" x="26.5" y="-261.5" font-family="Helvetica,sans-Serif" font-size="10.00">+ operator&#45;&gt;()</text>
</a>
</g>
</g>
<!-- Node3&#45;&gt;Node2 -->
<g id="edge2" class="edge">
<title>Node3&#45;&gt;Node2</title>
<path fill="none" stroke="orange" d="M77.5,-243.99C77.5,-231.77 77.5,-218.35 77.5,-206.52"/>
<polygon fill="orange" stroke="orange" points="74,-244.34 77.5,-254.34 81,-244.34 74,-244.34"/>
<text text-anchor="middle" x="138" y="-228" font-family="Helvetica,sans-Serif" font-size="10.00"> &lt; PimplClass::Private &gt;</text>
</g>
<!-- Node4 -->
<g id="node4" class="node">
<title>Node4</title>
<g id="a_node4"><a xlink:title=" ">
<polygon fill="white" stroke="#bfbfbf" points="63,-359.5 63,-416.5 92,-416.5 92,-359.5 63,-359.5"/>
<text text-anchor="middle" x="77.5" y="-404.5" font-family="Helvetica,sans-Serif" font-size="10.00">T</text>
<polyline fill="none" stroke="#bfbfbf" points="63,-397.5 92,-397.5 "/>
<text text-anchor="middle" x="77.5" y="-385.5" font-family="Helvetica,sans-Serif" font-size="10.00"> </text>
<polyline fill="none" stroke="#bfbfbf" points="63,-378.5 92,-378.5 "/>
<text text-anchor="middle" x="77.5" y="-366.5" font-family="Helvetica,sans-Serif" font-size="10.00"> </text>
</a>
</g>
</g>
<!-- Node4&#45;&gt;Node3 -->
<g id="edge3" class="edge">
<title>Node4&#45;&gt;Node3</title>
<path fill="none" stroke="#404040" d="M77.5,-359.4C77.5,-348.55 77.5,-335.87 77.5,-324.05"/>
<polygon fill="none" stroke="#404040" points="77.5,-323.68 73.5,-317.68 77.5,-311.68 81.5,-317.68 77.5,-323.68"/>
<text text-anchor="middle" x="90" y="-333" font-family="Helvetica,sans-Serif" font-size="10.00"> +ptr</text>
</g>
</g>
</svg>
