<?xml version="1.0" encoding="UTF-8" standalone="no"?>
<!DOCTYPE svg PUBLIC "-//W3C//DTD SVG 1.1//EN"
 "http://www.w3.org/Graphics/SVG/1.1/DTD/svg11.dtd">
<!-- Generated by graphviz version 2.43.0 (0)
 -->
<!-- Title: PimplClass Pages: 1 -->
<svg width="330pt" height="320pt"
 viewBox="0.00 0.00 329.50 320.00" xmlns="http://www.w3.org/2000/svg" xmlns:xlink="http://www.w3.org/1999/xlink">
<g id="graph0" class="graph" transform="scale(1 1) rotate(0) translate(4 316)">
<title>PimplClass</title>
<!-- Node1 -->
<g id="Node000001" class="node">
<title>Node1</title>
<g id="a_Node000001"><a xlink:title="PimplClass.">
<polygon fill="#999999" stroke="transparent" points="152,-312 61,-312 61,-218 152,-218 152,-312"/>
<text text-anchor="start" x="79.5" y="-300" font-family="Helvetica,sans-Serif" font-size="10.00">PimplClass</text>
<text text-anchor="start" x="105" y="-285" font-family="Helvetica,sans-Serif" font-size="10.00"> </text>
<text text-anchor="start" x="65.5" y="-270" font-family="Helvetica,sans-Serif" font-size="10.00">+</text>
<text text-anchor="start" x="78.5" y="-270" font-family="Helvetica,sans-Serif" font-size="10.00">~PimplClass()</text>
<text text-anchor="start" x="65.5" y="-255" font-family="Helvetica,sans-Serif" font-size="10.00">+</text>
<text text-anchor="start" x="78.5" y="-255" font-family="Helvetica,sans-Serif" font-size="10.00">isNull()</text>
<text text-anchor="start" x="65.5" y="-240" font-family="Helvetica,sans-Serif" font-size="10.00">+</text>
<text text-anchor="start" x="78.5" y="-240" font-family="Helvetica,sans-Serif" font-size="10.00">clear()</text>
<text text-anchor="start" x="65.5" y="-225" font-family="Helvetica,sans-Serif" font-size="10.00">#</text>
<text text-anchor="start" x="78.5" y="-225" font-family="Helvetica,sans-Serif" font-size="10.00">PimplClass()</text>
<polygon fill="#666666" stroke="#666666" points="61.5,-295 61.5,-295 152.5,-295 152.5,-295 61.5,-295"/>
<polygon fill="#666666" stroke="#666666" points="61.5,-280 61.5,-280 152.5,-280 152.5,-280 61.5,-280"/>
<polygon fill="none" stroke="#666666" points="61,-218 61,-312 152,-312 152,-218 61,-218"/>
</a>
</g>
</g>
<!-- Node3 -->
<g id="Node000003" class="node">
<title>Node3</title>
<g id="a_Node000003"><a xlink:href="struct_pimpl_class_1_1_private.html" target="_top" xlink:title="The PimplClass::Private class.">
<polygon fill="white" stroke="transparent" points="105,-171 0,-171 0,-107 105,-107 105,-171"/>
<text text-anchor="start" x="5.5" y="-159" font-family="Helvetica,sans-Serif" font-size="10.00">PimplClass::Private</text>
<text text-anchor="start" x="51" y="-144" font-family="Helvetica,sans-Serif" font-size="10.00"> </text>
<text text-anchor="start" x="12.5" y="-129" font-family="Helvetica,sans-Serif" font-size="10.00">+</text>
<text text-anchor="start" x="33.5" y="-129" font-family="Helvetica,sans-Serif" font-size="10.00">Private()</text>
<text text-anchor="start" x="12.5" y="-114" font-family="Helvetica,sans-Serif" font-size="10.00">+</text>
<text text-anchor="start" x="33.5" y="-114" font-family="Helvetica,sans-Serif" font-size="10.00">~Private()</text>
<polygon fill="#666666" stroke="#666666" points="0.5,-154 0.5,-154 105.5,-154 105.5,-154 0.5,-154"/>
<polygon fill="#666666" stroke="#666666" points="0.5,-139 0.5,-139 105.5,-139 105.5,-139 0.5,-139"/>
<polygon fill="none" stroke="#666666" points="0,-107 0,-171 105,-171 105,-107 0,-107"/>
</a>
</g>
</g>
<!-- Node1&#45;&gt;Node3 -->
<g id="edge3_Node000003_Node000001" class="edge">
<title>Node1&#45;&gt;Node3</title>
<g id="a_edge3_Node000003_Node000001"><a xlink:title=" ">
<path fill="none" stroke="#63b8ff" d="M86.39,-217.83C81.31,-206.16 75.88,-193.68 70.88,-182.22"/>
<polygon fill="none" stroke="#63b8ff" points="70.86,-182.16 64.8,-178.25 66.07,-171.16 72.13,-175.06 70.86,-182.16"/>
</a>
</g>
<text text-anchor="middle" x="97" y="-192" font-family="Helvetica,sans-Serif" font-size="10.00" fill="grey"> +q_ptr</text>
</g>
<!-- Node2 -->
<g id="Node000002" class="node">
<title>Node2</title>
<g id="a_Node000002"><a xlink:title=" ">
<polygon fill="white" stroke="transparent" points="216,-60 67,-60 67,0 216,0 216,-60"/>
<text text-anchor="start" x="72.5" y="-48" font-family="Helvetica,sans-Serif" font-size="10.00">std::unique_ptr&lt; PimplClass</text>
<text text-anchor="start" x="116" y="-37" font-family="Helvetica,sans-Serif" font-size="10.00">::Private &gt;</text>
<text text-anchor="start" x="140" y="-22" font-family="Helvetica,sans-Serif" font-size="10.00"> </text>
<text text-anchor="start" x="88" y="-7" font-family="Helvetica,sans-Serif" font-size="10.00">+</text>
<text text-anchor="start" x="117.5" y="-7" font-family="Helvetica,sans-Serif" font-size="10.00">operator&#45;&gt;()</text>
<polygon fill="#666666" stroke="#666666" points="67.5,-32 67.5,-32 216.5,-32 216.5,-32 67.5,-32"/>
<polygon fill="#666666" stroke="#666666" points="67.5,-17 67.5,-17 216.5,-17 216.5,-17 67.5,-17"/>
<polygon fill="none" stroke="#666666" points="67,0 67,-60 216,-60 216,0 67,0"/>
</a>
</g>
</g>
<!-- Node2&#45;&gt;Node1 -->
<g id="edge1_Node000001_Node000002" class="edge">
<title>Node2&#45;&gt;Node1</title>
<g id="a_edge1_Node000001_Node000002"><a xlink:title=" ">
<path fill="none" stroke="#63b8ff" d="M138.35,-60.1C134.54,-93.85 127.64,-151.11 119.5,-200 119.17,-202 118.82,-204.03 118.46,-206.08"/>
<polygon fill="none" stroke="#63b8ff" points="118.45,-206.13 121.29,-212.76 116.26,-217.93 113.42,-211.3 118.45,-206.13"/>
</a>
</g>
<text text-anchor="middle" x="152" y="-136.5" font-family="Helvetica,sans-Serif" font-size="10.00" fill="grey"> #d_ptr</text>
</g>
<!-- Node3&#45;&gt;Node2 -->
<g id="edge2_Node000002_Node000003" class="edge">
<title>Node3&#45;&gt;Node2</title>
<g id="a_edge2_Node000002_Node000003"><a xlink:title=" ">
<path fill="none" stroke="#63b8ff" d="M78.48,-106.76C88.12,-95.18 99.16,-81.9 109.29,-69.73"/>
<polygon fill="none" stroke="#63b8ff" points="109.49,-69.48 110.25,-62.31 117.16,-60.26 116.4,-67.43 109.49,-69.48"/>
</a>
</g>
<text text-anchor="middle" x="115" y="-81" font-family="Helvetica,sans-Serif" font-size="10.00" fill="grey"> +ptr</text>
</g>
<!-- Node4 -->
<g id="Node000004" class="node">
<title>Node4</title>
<g id="a_Node000004"><a xlink:title=" ">
<polygon fill="white" stroke="transparent" points="308.5,-163.5 196.5,-163.5 196.5,-114.5 308.5,-114.5 308.5,-163.5"/>
<text text-anchor="start" x="201.5" y="-151" font-family="Helvetica,sans-Serif" font-size="10.00">std::unique_ptr&lt; T &gt;</text>
<text text-anchor="start" x="250.5" y="-136" font-family="Helvetica,sans-Serif" font-size="10.00"> </text>
<text text-anchor="start" x="208" y="-121" font-family="Helvetica,sans-Serif" font-size="10.00">+</text>
<text text-anchor="start" x="228.5" y="-121" font-family="Helvetica,sans-Serif" font-size="10.00">operator&#45;&gt;()</text>
<polygon fill="#666666" stroke="#666666" points="196.5,-146 196.5,-146 308.5,-146 308.5,-146 196.5,-146"/>
<polygon fill="#666666" stroke="#666666" points="196.5,-131 196.5,-131 308.5,-131 308.5,-131 196.5,-131"/>
<polygon fill="none" stroke="#666666" points="196.5,-114.5 196.5,-163.5 308.5,-163.5 308.5,-114.5 196.5,-114.5"/>
</a>
</g>
</g>
<!-- Node4&#45;&gt;Node2 -->
<g id="edge4_Node000002_Node000004" class="edge">
<title>Node4&#45;&gt;Node2</title>
<g id="a_edge4_Node000002_Node000004"><a xlink:title=" ">
<path fill="none" stroke="orange" d="M220.57,-107.22C205.15,-92.36 186.77,-74.63 171.6,-60.02"/>
<polygon fill="orange" stroke="orange" points="218.24,-109.83 227.87,-114.25 223.09,-104.79 218.24,-109.83"/>
</a>
</g>
<text text-anchor="middle" x="261" y="-81" font-family="Helvetica,sans-Serif" font-size="10.00" fill="grey"> &lt; PimplClass::Private &gt;</text>
</g>
<!-- Node5 -->
<g id="Node000005" class="node">
<title>Node5</title>
<g id="a_Node000005"><a xlink:title=" ">
<polygon fill="white" stroke="transparent" points="261,-289.5 244,-289.5 244,-240.5 261,-240.5 261,-289.5"/>
<text text-anchor="start" x="249.5" y="-277" font-family="Helvetica,sans-Serif" font-size="10.00">T</text>
<text text-anchor="start" x="251" y="-262" font-family="Helvetica,sans-Serif" font-size="10.00"> </text>
<text text-anchor="start" x="251" y="-247" font-family="Helvetica,sans-Serif" font-size="10.00"> </text>
<polygon fill="#666666" stroke="#666666" points="244.5,-272 244.5,-272 261.5,-272 261.5,-272 244.5,-272"/>
<polygon fill="#666666" stroke="#666666" points="244.5,-257 244.5,-257 261.5,-257 261.5,-257 244.5,-257"/>
<polygon fill="none" stroke="#666666" points="244,-240.5 244,-289.5 261,-289.5 261,-240.5 244,-240.5"/>
</a>
</g>
</g>
<!-- Node5&#45;&gt;Node4 -->
<g id="edge5_Node000004_Node000005" class="edge">
<title>Node5&#45;&gt;Node4</title>
<g id="a_edge5_Node000004_Node000005"><a xlink:title=" ">
<path fill="none" stroke="#63b8ff" d="M252.5,-240.38C252.5,-222.11 252.5,-196.51 252.5,-175.73"/>
<polygon fill="none" stroke="#63b8ff" points="252.5,-175.53 248.5,-169.53 252.5,-163.53 256.5,-169.53 252.5,-175.53"/>
</a>
</g>
<text text-anchor="middle" x="265" y="-192" font-family="Helvetica,sans-Serif" font-size="10.00" fill="grey"> +ptr</text>
</g>
</g>
</svg>
