<?xml version="1.0" encoding="UTF-8" standalone="no"?>
<!DOCTYPE svg PUBLIC "-//W3C//DTD SVG 1.1//EN"
 "http://www.w3.org/Graphics/SVG/1.1/DTD/svg11.dtd">
<!-- Generated by graphviz version 2.43.0 (0)
 -->
<!-- Title: PimplClass::Private Pages: 1 -->
<svg width="207pt" height="541pt"
 viewBox="0.00 0.00 206.50 541.00" xmlns="http://www.w3.org/2000/svg" xmlns:xlink="http://www.w3.org/1999/xlink">
<g id="graph0" class="graph" transform="scale(1 1) rotate(0) translate(4 537)">
<title>PimplClass::Private</title>
<polygon fill="white" stroke="transparent" points="-4,4 -4,-537 202.5,-537 202.5,4 -4,4"/>
<!-- Node1 -->
<g id="node1" class="node">
<title>Node1</title>
<g id="a_node1"><a xlink:title="The PimplClass::Private class.">
<polygon fill="#bfbfbf" stroke="black" points="22,-0.5 22,-68.5 133,-68.5 133,-0.5 22,-0.5"/>
<text text-anchor="middle" x="77.5" y="-56.5" font-family="Helvetica,sans-Serif" font-size="10.00">PimplClass::Private</text>
<polyline fill="none" stroke="black" points="22,-49.5 133,-49.5 "/>
<text text-anchor="middle" x="77.5" y="-37.5" font-family="Helvetica,sans-Serif" font-size="10.00"> </text>
<polyline fill="none" stroke="black" points="22,-30.5 133,-30.5 "/>
<text text-anchor="start" x="30" y="-18.5" font-family="Helvetica,sans-Serif" font-size="10.00">+ Private()</text>
<text text-anchor="start" x="30" y="-7.5" font-family="Helvetica,sans-Serif" font-size="10.00">+ ~Private()</text>
</a>
</g>
</g>
<!-- Node2 -->
<g id="node2" class="node">
<title>Node2</title>
<g id="a_node2"><a xlink:href="class_pimpl_class.html" target="_top" xlink:title="PimplClass.">
<polygon fill="white" stroke="black" points="28.5,-116.5 28.5,-206.5 126.5,-206.5 126.5,-116.5 28.5,-116.5"/>
<text text-anchor="middle" x="77.5" y="-194.5" font-family="Helvetica,sans-Serif" font-size="10.00">PimplClass</text>
<polyline fill="none" stroke="black" points="28.5,-187.5 126.5,-187.5 "/>
<text text-anchor="middle" x="77.5" y="-175.5" font-family="Helvetica,sans-Serif" font-size="10.00"> </text>
<polyline fill="none" stroke="black" points="28.5,-168.5 126.5,-168.5 "/>
<text text-anchor="start" x="36.5" y="-156.5" font-family="Helvetica,sans-Serif" font-size="10.00">+ ~PimplClass()</text>
<text text-anchor="start" x="36.5" y="-145.5" font-family="Helvetica,sans-Serif" font-size="10.00">+ isNull()</text>
<text text-anchor="start" x="36.5" y="-134.5" font-family="Helvetica,sans-Serif" font-size="10.00">+ clear()</text>
<text text-anchor="start" x="36.5" y="-123.5" font-family="Helvetica,sans-Serif" font-size="10.00"># PimplClass()</text>
</a>
</g>
</g>
<!-- Node2&#45;&gt;Node1 -->
<g id="edge1" class="edge">
<title>Node2&#45;&gt;Node1</title>
<path fill="none" stroke="#404040" d="M77.5,-116.43C77.5,-104.87 77.5,-92.38 77.5,-80.76"/>
<polygon fill="none" stroke="#404040" points="77.5,-80.57 73.5,-74.57 77.5,-68.57 81.5,-74.57 77.5,-80.57"/>
<text text-anchor="middle" x="96" y="-90" font-family="Helvetica,sans-Serif" font-size="10.00"> +q_ptr</text>
</g>
<!-- Node3 -->
<g id="node3" class="node">
<title>Node3</title>
<g id="a_node3"><a xlink:title=" ">
<polygon fill="white" stroke="#bfbfbf" points="0,-254.5 0,-322.5 155,-322.5 155,-254.5 0,-254.5"/>
<text text-anchor="start" x="8" y="-310.5" font-family="Helvetica,sans-Serif" font-size="10.00">std::unique_ptr&lt; PimplClass</text>
<text text-anchor="middle" x="77.5" y="-299.5" font-family="Helvetica,sans-Serif" font-size="10.00">::Private &gt;</text>
<polyline fill="none" stroke="#bfbfbf" points="0,-292.5 155,-292.5 "/>
<text text-anchor="start" x="8" y="-280.5" font-family="Helvetica,sans-Serif" font-size="10.00">+ ptr</text>
<polyline fill="none" stroke="#bfbfbf" points="0,-273.5 155,-273.5 "/>
<text text-anchor="start" x="8" y="-261.5" font-family="Helvetica,sans-Serif" font-size="10.00">+ operator&#45;&gt;()</text>
</a>
</g>
</g>
<!-- Node3&#45;&gt;Node2 -->
<g id="edge2" class="edge">
<title>Node3&#45;&gt;Node2</title>
<path fill="none" stroke="#404040" d="M77.5,-254.33C77.5,-243.37 77.5,-230.86 77.5,-218.67"/>
<polygon fill="none" stroke="#404040" points="77.5,-218.66 73.5,-212.66 77.5,-206.66 81.5,-212.66 77.5,-218.66"/>
<text text-anchor="middle" x="96" y="-228" font-family="Helvetica,sans-Serif" font-size="10.00"> #d_ptr</text>
</g>
<!-- Node4 -->
<g id="node4" class="node">
<title>Node4</title>
<g id="a_node4"><a xlink:title=" ">
<polygon fill="white" stroke="#bfbfbf" points="18.5,-370.5 18.5,-427.5 136.5,-427.5 136.5,-370.5 18.5,-370.5"/>
<text text-anchor="middle" x="77.5" y="-415.5" font-family="Helvetica,sans-Serif" font-size="10.00">std::unique_ptr&lt; T &gt;</text>
<polyline fill="none" stroke="#bfbfbf" points="18.5,-408.5 136.5,-408.5 "/>
<text text-anchor="middle" x="77.5" y="-396.5" font-family="Helvetica,sans-Serif" font-size="10.00"> </text>
<polyline fill="none" stroke="#bfbfbf" points="18.5,-389.5 136.5,-389.5 "/>
<text text-anchor="start" x="26.5" y="-377.5" font-family="Helvetica,sans-Serif" font-size="10.00">+ operator&#45;&gt;()</text>
</a>
</g>
</g>
<!-- Node4&#45;&gt;Node3 -->
<g id="edge3" class="edge">
<title>Node4&#45;&gt;Node3</title>
<path fill="none" stroke="orange" d="M77.5,-359.99C77.5,-347.77 77.5,-334.35 77.5,-322.52"/>
<polygon fill="orange" stroke="orange" points="74,-360.34 77.5,-370.34 81,-360.34 74,-360.34"/>
<text text-anchor="middle" x="138" y="-344" font-family="Helvetica,sans-Serif" font-size="10.00"> &lt; PimplClass::Private &gt;</text>
</g>
<!-- Node5 -->
<g id="node5" class="node">
<title>Node5</title>
<g id="a_node5"><a xlink:title=" ">
<polygon fill="white" stroke="#bfbfbf" points="63,-475.5 63,-532.5 92,-532.5 92,-475.5 63,-475.5"/>
<text text-anchor="middle" x="77.5" y="-520.5" font-family="Helvetica,sans-Serif" font-size="10.00">T</text>
<polyline fill="none" stroke="#bfbfbf" points="63,-513.5 92,-513.5 "/>
<text text-anchor="middle" x="77.5" y="-501.5" font-family="Helvetica,sans-Serif" font-size="10.00"> </text>
<polyline fill="none" stroke="#bfbfbf" points="63,-494.5 92,-494.5 "/>
<text text-anchor="middle" x="77.5" y="-482.5" font-family="Helvetica,sans-Serif" font-size="10.00"> </text>
</a>
</g>
</g>
<!-- Node5&#45;&gt;Node4 -->
<g id="edge4" class="edge">
<title>Node5&#45;&gt;Node4</title>
<path fill="none" stroke="#404040" d="M77.5,-475.4C77.5,-464.55 77.5,-451.87 77.5,-440.05"/>
<polygon fill="none" stroke="#404040" points="77.5,-439.68 73.5,-433.68 77.5,-427.68 81.5,-433.68 77.5,-439.68"/>
<text text-anchor="middle" x="90" y="-449" font-family="Helvetica,sans-Serif" font-size="10.00"> +ptr</text>
</g>
</g>
</svg>
