<?xml version="1.0" encoding="UTF-8" standalone="no"?>
<!DOCTYPE svg PUBLIC "-//W3C//DTD SVG 1.1//EN"
 "http://www.w3.org/Graphics/SVG/1.1/DTD/svg11.dtd">
<!-- Generated by graphviz version 2.43.0 (0)
 -->
<!-- Title: PimplClass::Private Pages: 1 -->
<svg width="310pt" height="416pt"
 viewBox="0.00 0.00 309.50 416.00" xmlns="http://www.w3.org/2000/svg" xmlns:xlink="http://www.w3.org/1999/xlink">

<svg id="main" version="1.1" xmlns="http://www.w3.org/2000/svg" xmlns:xlink="http://www.w3.org/1999/xlink" xml:space="preserve" onload="init(evt)">
<style type="text/css"><![CDATA[
.node, .edge {opacity: 0.7;}
.node.selected, .edge.selected {opacity: 1;}
.edge:hover path { stroke: red; }
.edge:hover polygon { stroke: red; fill: red; }
]]></style>
<script type="application/ecmascript" xlink:href="svg.min.js"/>
<svg id="graph" class="graph">
<g id="graph0" class="graph" transform="scale(1 1) rotate(0) translate(4 412)">
<title>PimplClass::Private</title>
<!-- Node1 -->
<g id="Node000001" class="node">
<title>Node1</title>
<g id="a_Node000001"><a xlink:title="The PimplClass::Private class.">
<polygon fill="#999999" stroke="transparent" points="105,-312 0,-312 0,-248 105,-248 105,-312"/>
<text text-anchor="start" x="5.5" y="-300" font-family="Helvetica,sans-Serif" font-size="10.00">PimplClass::Private</text>
<text text-anchor="start" x="51" y="-285" font-family="Helvetica,sans-Serif" font-size="10.00"> </text>
<text text-anchor="start" x="12.5" y="-270" font-family="Helvetica,sans-Serif" font-size="10.00">+</text>
<text text-anchor="start" x="33.5" y="-270" font-family="Helvetica,sans-Serif" font-size="10.00">Private()</text>
<text text-anchor="start" x="12.5" y="-255" font-family="Helvetica,sans-Serif" font-size="10.00">+</text>
<text text-anchor="start" x="33.5" y="-255" font-family="Helvetica,sans-Serif" font-size="10.00">~Private()</text>
<polygon fill="#666666" stroke="#666666" points="0.5,-295 0.5,-295 105.5,-295 105.5,-295 0.5,-295"/>
<polygon fill="#666666" stroke="#666666" points="0.5,-280 0.5,-280 105.5,-280 105.5,-280 0.5,-280"/>
<polygon fill="none" stroke="#666666" points="0,-248 0,-312 105,-312 105,-248 0,-248"/>
</a>
</g>
</g>
<!-- Node3 -->
<g id="Node000003" class="node">
<title>Node3</title>
<g id="a_Node000003"><a xlink:title=" ">
<polygon fill="white" stroke="transparent" points="255,-201 106,-201 106,-141 255,-141 255,-201"/>
<text text-anchor="start" x="111.5" y="-189" font-family="Helvetica,sans-Serif" font-size="10.00">std::unique_ptr&lt; PimplClass</text>
<text text-anchor="start" x="155" y="-178" font-family="Helvetica,sans-Serif" font-size="10.00">::Private &gt;</text>
<text text-anchor="start" x="179" y="-163" font-family="Helvetica,sans-Serif" font-size="10.00"> </text>
<text text-anchor="start" x="127" y="-148" font-family="Helvetica,sans-Serif" font-size="10.00">+</text>
<text text-anchor="start" x="156.5" y="-148" font-family="Helvetica,sans-Serif" font-size="10.00">operator&#45;&gt;()</text>
<polygon fill="#666666" stroke="#666666" points="106.5,-173 106.5,-173 255.5,-173 255.5,-173 106.5,-173"/>
<polygon fill="#666666" stroke="#666666" points="106.5,-158 106.5,-158 255.5,-158 255.5,-158 106.5,-158"/>
<polygon fill="none" stroke="#666666" points="106,-141 106,-201 255,-201 255,-141 106,-141"/>
</a>
</g>
</g>
<!-- Node1&#45;&gt;Node3 -->
<g id="edge3_Node000003_Node000001" class="edge">
<title>Node1&#45;&gt;Node3</title>
<g id="a_edge3_Node000003_Node000001"><a xlink:title=" ">
<path fill="none" stroke="#63b8ff" d="M89.87,-247.76C104.27,-235.72 120.87,-221.85 135.89,-209.29"/>
<polygon fill="none" stroke="#63b8ff" points="136.29,-208.95 138.33,-202.04 145.5,-201.26 143.46,-208.17 136.29,-208.95"/>
</a>
</g>
<text text-anchor="middle" x="137" y="-222" font-family="Helvetica,sans-Serif" font-size="10.00" fill="grey"> +ptr</text>
</g>
<!-- Node2 -->
<g id="Node000002" class="node">
<title>Node2</title>
<g id="a_Node000002"><a xlink:href="class_pimpl_class.html" target="_top" xlink:title="PimplClass.">
<polygon fill="white" stroke="transparent" points="112,-94 21,-94 21,0 112,0 112,-94"/>
<text text-anchor="start" x="39.5" y="-82" font-family="Helvetica,sans-Serif" font-size="10.00">PimplClass</text>
<text text-anchor="start" x="65" y="-67" font-family="Helvetica,sans-Serif" font-size="10.00"> </text>
<text text-anchor="start" x="25.5" y="-52" font-family="Helvetica,sans-Serif" font-size="10.00">+</text>
<text text-anchor="start" x="38.5" y="-52" font-family="Helvetica,sans-Serif" font-size="10.00">~PimplClass()</text>
<text text-anchor="start" x="25.5" y="-37" font-family="Helvetica,sans-Serif" font-size="10.00">+</text>
<text text-anchor="start" x="38.5" y="-37" font-family="Helvetica,sans-Serif" font-size="10.00">isNull()</text>
<text text-anchor="start" x="25.5" y="-22" font-family="Helvetica,sans-Serif" font-size="10.00">+</text>
<text text-anchor="start" x="38.5" y="-22" font-family="Helvetica,sans-Serif" font-size="10.00">clear()</text>
<text text-anchor="start" x="25.5" y="-7" font-family="Helvetica,sans-Serif" font-size="10.00">#</text>
<text text-anchor="start" x="38.5" y="-7" font-family="Helvetica,sans-Serif" font-size="10.00">PimplClass()</text>
<polygon fill="#666666" stroke="#666666" points="21.5,-77 21.5,-77 112.5,-77 112.5,-77 21.5,-77"/>
<polygon fill="#666666" stroke="#666666" points="21.5,-62 21.5,-62 112.5,-62 112.5,-62 21.5,-62"/>
<polygon fill="none" stroke="#666666" points="21,0 21,-94 112,-94 112,0 21,0"/>
</a>
</g>
</g>
<!-- Node2&#45;&gt;Node1 -->
<g id="edge1_Node000001_Node000002" class="edge">
<title>Node2&#45;&gt;Node1</title>
<g id="a_edge1_Node000001_Node000002"><a xlink:title=" ">
<path fill="none" stroke="#63b8ff" d="M63.45,-94.35C62.49,-109.25 61.43,-125.82 60.5,-141 58.56,-172.64 56.49,-208.37 54.95,-235.54"/>
<polygon fill="none" stroke="#63b8ff" points="54.93,-235.78 58.59,-241.99 54.25,-247.76 50.6,-241.54 54.93,-235.78"/>
</a>
</g>
<text text-anchor="middle" x="79" y="-168.5" font-family="Helvetica,sans-Serif" font-size="10.00" fill="grey"> +q_ptr</text>
</g>
<!-- Node3&#45;&gt;Node2 -->
<g id="edge2_Node000002_Node000003" class="edge">
<title>Node3&#45;&gt;Node2</title>
<g id="a_edge2_Node000002_Node000003"><a xlink:title=" ">
<path fill="none" stroke="#63b8ff" d="M153.19,-140.78C142.6,-129.44 130.1,-116.06 117.94,-103.05"/>
<polygon fill="none" stroke="#63b8ff" points="117.8,-102.9 110.78,-101.25 109.61,-94.14 116.63,-95.79 117.8,-102.9"/>
</a>
</g>
<text text-anchor="middle" x="152" y="-115" font-family="Helvetica,sans-Serif" font-size="10.00" fill="grey"> #d_ptr</text>
</g>
<!-- Node4 -->
<g id="Node000004" class="node">
<title>Node4</title>
<g id="a_Node000004"><a xlink:title=" ">
<polygon fill="white" stroke="transparent" points="236.5,-304.5 124.5,-304.5 124.5,-255.5 236.5,-255.5 236.5,-304.5"/>
<text text-anchor="start" x="129.5" y="-292" font-family="Helvetica,sans-Serif" font-size="10.00">std::unique_ptr&lt; T &gt;</text>
<text text-anchor="start" x="178.5" y="-277" font-family="Helvetica,sans-Serif" font-size="10.00"> </text>
<text text-anchor="start" x="136" y="-262" font-family="Helvetica,sans-Serif" font-size="10.00">+</text>
<text text-anchor="start" x="156.5" y="-262" font-family="Helvetica,sans-Serif" font-size="10.00">operator&#45;&gt;()</text>
<polygon fill="#666666" stroke="#666666" points="124.5,-287 124.5,-287 236.5,-287 236.5,-287 124.5,-287"/>
<polygon fill="#666666" stroke="#666666" points="124.5,-272 124.5,-272 236.5,-272 236.5,-272 124.5,-272"/>
<polygon fill="none" stroke="#666666" points="124.5,-255.5 124.5,-304.5 236.5,-304.5 236.5,-255.5 124.5,-255.5"/>
</a>
</g>
</g>
<!-- Node4&#45;&gt;Node3 -->
<g id="edge4_Node000003_Node000004" class="edge">
<title>Node4&#45;&gt;Node3</title>
<g id="a_edge4_Node000003_Node000004"><a xlink:title=" ">
<path fill="none" stroke="orange" d="M180.5,-244.93C180.5,-230.8 180.5,-214.57 180.5,-201.02"/>
<polygon fill="orange" stroke="orange" points="177,-245.25 180.5,-255.25 184,-245.25 177,-245.25"/>
</a>
</g>
<text text-anchor="middle" x="241" y="-222" font-family="Helvetica,sans-Serif" font-size="10.00" fill="grey"> &lt; PimplClass::Private &gt;</text>
</g>
<!-- Node5 -->
<g id="Node000005" class="node">
<title>Node5</title>
<g id="a_Node000005"><a xlink:title=" ">
<polygon fill="white" stroke="transparent" points="189,-408 172,-408 172,-359 189,-359 189,-408"/>
<text text-anchor="start" x="177.5" y="-395.5" font-family="Helvetica,sans-Serif" font-size="10.00">T</text>
<text text-anchor="start" x="179" y="-380.5" font-family="Helvetica,sans-Serif" font-size="10.00"> </text>
<text text-anchor="start" x="179" y="-365.5" font-family="Helvetica,sans-Serif" font-size="10.00"> </text>
<polygon fill="#666666" stroke="#666666" points="172.5,-390.5 172.5,-390.5 189.5,-390.5 189.5,-390.5 172.5,-390.5"/>
<polygon fill="#666666" stroke="#666666" points="172.5,-375.5 172.5,-375.5 189.5,-375.5 189.5,-375.5 172.5,-375.5"/>
<polygon fill="none" stroke="#666666" points="172,-359 172,-408 189,-408 189,-359 172,-359"/>
</a>
</g>
</g>
<!-- Node5&#45;&gt;Node4 -->
<g id="edge5_Node000004_Node000005" class="edge">
<title>Node5&#45;&gt;Node4</title>
<g id="a_edge5_Node000004_Node000005"><a xlink:title=" ">
<path fill="none" stroke="#63b8ff" d="M180.5,-358.96C180.5,-346.49 180.5,-330.92 180.5,-316.98"/>
<polygon fill="none" stroke="#63b8ff" points="180.5,-316.77 176.5,-310.77 180.5,-304.77 184.5,-310.77 180.5,-316.77"/>
</a>
</g>
<text text-anchor="middle" x="193" y="-333" font-family="Helvetica,sans-Serif" font-size="10.00" fill="grey"> +ptr</text>
</g>
</g>
</svg>
</svg>

<style type='text/css'>
<![CDATA[
[data-mouse-over-selected='false'] { opacity: 0.7; }
[data-mouse-over-selected='true']  { opacity: 1.0; }
]]>
</style>
<script type="application/ecmascript"><![CDATA[
document.addEventListener('DOMContentLoaded', (event) => {
  highlightEdges();
  highlightAdjacentNodes();
});
]]></script>
</svg>
