<?xml version="1.0" encoding="UTF-8" standalone="no"?><svg xmlns="http://www.w3.org/2000/svg" xmlns:xlink="http://www.w3.org/1999/xlink" contentStyleType="text/css" height="416px" preserveAspectRatio="none" style="width:289px;height:416px;background:#FFFFFF;" version="1.1" viewBox="0 0 289 416" width="289px" zoomAndPan="magnify"><defs/><g><!--MD5=[344e176d75da7a2967d313ec2f2b6a67]
class User::Private--><g id="elem_User::Private"><rect codeLine="3" fill="#F1F1F1" height="136.0469" id="User::Private" rx="2.5" ry="2.5" style="stroke:#181818;stroke-width:0.5;" width="143" x="74" y="7"/><ellipse cx="102.5" cy="23" fill="#ADD1B2" rx="11" ry="11" style="stroke:#181818;stroke-width:1.0;"/><path d="M105.2656,18.875 Q105.4219,18.6563 105.6094,18.5469 Q105.7969,18.4375 106.0156,18.4375 Q106.3906,18.4375 106.625,18.6953 Q106.8594,18.9531 106.8594,19.5625 L106.8594,21.0156 Q106.8594,21.625 106.625,21.8906 Q106.3906,22.1563 106.0156,22.1563 Q105.6719,22.1563 105.4688,21.9531 Q105.2656,21.7656 105.1563,21.25 Q105.1094,20.8906 104.9219,20.7031 Q104.5938,20.3281 103.9844,20.1094 Q103.375,19.8906 102.75,19.8906 Q101.9844,19.8906 101.3516,20.2188 Q100.7188,20.5469 100.2266,21.2969 Q99.7344,22.0469 99.7344,23.0781 L99.7344,24.1719 Q99.7344,25.4063 100.625,26.2266 Q101.5156,27.0469 103.1094,27.0469 Q104.0469,27.0469 104.7031,26.7969 Q105.0938,26.6406 105.5156,26.2031 Q105.7813,25.9375 105.9297,25.8594 Q106.0781,25.7813 106.2813,25.7813 Q106.6094,25.7813 106.8672,26.0391 Q107.125,26.2969 107.125,26.6406 Q107.125,26.9844 106.7813,27.3906 Q106.2813,27.9688 105.4844,28.2969 Q104.4063,28.75 103.1094,28.75 Q101.5938,28.75 100.3906,28.125 Q99.4063,27.625 98.7188,26.5547 Q98.0313,25.4844 98.0313,24.2031 L98.0313,23.0469 Q98.0313,21.7188 98.6484,20.5703 Q99.2656,19.4219 100.3594,18.8047 Q101.4531,18.1875 102.6875,18.1875 Q103.4219,18.1875 104.0703,18.3516 Q104.7188,18.5156 105.2656,18.875 Z " fill="#000000"/><text fill="#000000" font-family="sans-serif" font-size="14" lengthAdjust="spacing" textLength="81" x="119.5" y="28.7285">User::Private</text><line style="stroke:#181818;stroke-width:0.5;" x1="75" x2="216" y1="39" y2="39"/><ellipse cx="85" cy="53.3047" fill="none" rx="3" ry="3" style="stroke:#038048;stroke-width:1.0;"/><text fill="#000000" font-family="sans-serif" font-size="14" lengthAdjust="spacing" textLength="105" x="94" y="57.5332">std::string name;</text><ellipse cx="85" cy="70.9141" fill="none" rx="3" ry="3" style="stroke:#038048;stroke-width:1.0;"/><text fill="#000000" font-family="sans-serif" font-size="14" lengthAdjust="spacing" textLength="47" x="94" y="75.1426">int age;</text><ellipse cx="85" cy="88.5234" fill="none" rx="3" ry="3" style="stroke:#038048;stroke-width:1.0;"/><text fill="#000000" font-family="sans-serif" font-size="14" lengthAdjust="spacing" textLength="117" x="94" y="92.752">q_ptr : User* const</text><line style="stroke:#181818;stroke-width:0.5;" x1="75" x2="216" y1="99.8281" y2="99.8281"/><ellipse cx="85" cy="114.1328" fill="#84BE84" rx="3" ry="3" style="stroke:#038048;stroke-width:1.0;"/><text fill="#000000" font-family="sans-serif" font-size="14" lengthAdjust="spacing" textLength="100" x="94" y="118.3613">Private(User* q)</text><ellipse cx="85" cy="131.7422" fill="#84BE84" rx="3" ry="3" style="stroke:#038048;stroke-width:1.0;"/><text fill="#000000" font-family="sans-serif" font-size="14" lengthAdjust="spacing" textLength="62" x="94" y="135.9707">~Private()</text></g><!--MD5=[3fd616f346a44cd59a91eb10b19e157c]
class User--><g id="elem_User"><rect codeLine="11" fill="#F1F1F1" height="206.4844" id="User" rx="2.5" ry="2.5" style="stroke:#181818;stroke-width:0.5;" width="273" x="9" y="203"/><ellipse cx="126.75" cy="219" fill="#ADD1B2" rx="11" ry="11" style="stroke:#181818;stroke-width:1.0;"/><path d="M129.5156,214.875 Q129.6719,214.6563 129.8594,214.5469 Q130.0469,214.4375 130.2656,214.4375 Q130.6406,214.4375 130.875,214.6953 Q131.1094,214.9531 131.1094,215.5625 L131.1094,217.0156 Q131.1094,217.625 130.875,217.8906 Q130.6406,218.1563 130.2656,218.1563 Q129.9219,218.1563 129.7188,217.9531 Q129.5156,217.7656 129.4063,217.25 Q129.3594,216.8906 129.1719,216.7031 Q128.8438,216.3281 128.2344,216.1094 Q127.625,215.8906 127,215.8906 Q126.2344,215.8906 125.6016,216.2188 Q124.9688,216.5469 124.4766,217.2969 Q123.9844,218.0469 123.9844,219.0781 L123.9844,220.1719 Q123.9844,221.4063 124.875,222.2266 Q125.7656,223.0469 127.3594,223.0469 Q128.2969,223.0469 128.9531,222.7969 Q129.3438,222.6406 129.7656,222.2031 Q130.0313,221.9375 130.1797,221.8594 Q130.3281,221.7813 130.5313,221.7813 Q130.8594,221.7813 131.1172,222.0391 Q131.375,222.2969 131.375,222.6406 Q131.375,222.9844 131.0313,223.3906 Q130.5313,223.9688 129.7344,224.2969 Q128.6563,224.75 127.3594,224.75 Q125.8438,224.75 124.6406,224.125 Q123.6563,223.625 122.9688,222.5547 Q122.2813,221.4844 122.2813,220.2031 L122.2813,219.0469 Q122.2813,217.7188 122.8984,216.5703 Q123.5156,215.4219 124.6094,214.8047 Q125.7031,214.1875 126.9375,214.1875 Q127.6719,214.1875 128.3203,214.3516 Q128.9688,214.5156 129.5156,214.875 Z " fill="#000000"/><text fill="#000000" font-family="sans-serif" font-size="14" lengthAdjust="spacing" textLength="29" x="147.25" y="224.7285">User</text><line style="stroke:#181818;stroke-width:0.5;" x1="10" x2="281" y1="235" y2="235"/><polygon fill="none" points="20,244.3047,24,248.3047,20,252.3047,16,248.3047" style="stroke:#B38D22;stroke-width:1.0;"/><text fill="#000000" font-family="sans-serif" font-size="14" lengthAdjust="spacing" textLength="200" x="29" y="253.5332">d_ptr : std::unique_ptr&lt;Private&gt;</text><line style="stroke:#181818;stroke-width:0.5;" x1="10" x2="281" y1="260.6094" y2="260.6094"/><ellipse cx="20" cy="274.9141" fill="#84BE84" rx="3" ry="3" style="stroke:#038048;stroke-width:1.0;"/><text fill="#000000" font-family="sans-serif" font-size="14" lengthAdjust="spacing" textLength="39" x="29" y="279.1426">User()</text><ellipse cx="20" cy="292.5234" fill="#84BE84" rx="3" ry="3" style="stroke:#038048;stroke-width:1.0;"/><text fill="#000000" font-family="sans-serif" font-size="14" lengthAdjust="spacing" textLength="242" x="29" y="296.752">User (const std::string &amp;name, int age)</text><ellipse cx="20" cy="310.1328" fill="#84BE84" rx="3" ry="3" style="stroke:#038048;stroke-width:1.0;"/><text fill="#000000" font-family="sans-serif" font-size="14" lengthAdjust="spacing" textLength="149" x="29" y="314.3613">std::string name() const</text><ellipse cx="20" cy="327.7422" fill="#84BE84" rx="3" ry="3" style="stroke:#038048;stroke-width:1.0;"/><text fill="#000000" font-family="sans-serif" font-size="14" lengthAdjust="spacing" textLength="91" x="29" y="331.9707">int age() const</text><ellipse cx="20" cy="345.3516" fill="#84BE84" rx="3" ry="3" style="stroke:#038048;stroke-width:1.0;"/><text fill="#000000" font-family="sans-serif" font-size="14" lengthAdjust="spacing" textLength="131" x="29" y="349.5801">void setAge (int age)</text><ellipse cx="20" cy="362.9609" fill="#84BE84" rx="3" ry="3" style="stroke:#038048;stroke-width:1.0;"/><text fill="#000000" font-family="sans-serif" font-size="14" lengthAdjust="spacing" textLength="247" x="29" y="367.1895">void setName (const std::string &amp;name)</text><polygon fill="#FFFF44" points="20,375.5703,24,379.5703,20,383.5703,16,379.5703" style="stroke:#B38D22;stroke-width:1.0;"/><text fill="#000000" font-family="sans-serif" font-size="14" lengthAdjust="spacing" textLength="112" x="29" y="384.7988">User(Private&amp; dd)</text><ellipse cx="20" cy="398.1797" fill="#84BE84" rx="3" ry="3" style="stroke:#038048;stroke-width:1.0;"/><text fill="#000000" font-family="sans-serif" font-size="14" lengthAdjust="spacing" textLength="47" x="29" y="402.4082">~User()</text></g><!--MD5=[44262d6ac6df0a2bd1ec1435b1b26a5e]
reverse link User::Private to User--><g id="link_User::Private_User"><path codeLine="26" d="M145.5,156.18 C145.5,171.3 145.5,187.29 145.5,202.96 " fill="none" id="User::Private-backto-User" style="stroke:#181818;stroke-width:1.0;"/><polygon fill="none" points="145.5,143.16,141.5,149.16,145.5,155.16,149.5,149.16,145.5,143.16" style="stroke:#181818;stroke-width:1.0;"/></g><!--MD5=[c697768f8b3d20e632faab553fb5e1d1]
@startuml

/' Objects '/
class User::Private {
  +std::string name;
  +int age;
  +Private(User* q)
  +~Private()
  +q_ptr : User* const
}

class User {
  +User()
  +User (const std::string &name, int age)
  +std::string name() const
  +int age() const
  +void setAge (int age)
  +void setName (const std::string &name)
  #User(Private& dd)
  +~User()
  #d_ptr : std::unique_ptr<Private>
}

/' Inheritance relationships '/

/' Aggregation relationships '/
.User::Private o- - .User

/' Nested objects '/

@enduml

@startuml

class User::Private {
  +std::string name;
  +int age;
  +Private(User* q)
  +~Private()
  +q_ptr : User* const
}

class User {
  +User()
  +User (const std::string &name, int age)
  +std::string name() const
  +int age() const
  +void setAge (int age)
  +void setName (const std::string &name)
  #User(Private& dd)
  +~User()
  #d_ptr : std::unique_ptr<Private>
}


.User::Private o- - .User


@enduml

PlantUML version 1.2022.7(Mon Aug 22 19:01:30 CEST 2022)
(GPL source distribution)
Java Runtime: Java(TM) SE Runtime Environment
JVM: Java HotSpot(TM) 64-Bit Server VM
Default Encoding: Cp1252
Language: fr
Country: FR
--></g></svg>