<?xml version="1.0" encoding="UTF-8" standalone="no"?><svg xmlns="http://www.w3.org/2000/svg" xmlns:xlink="http://www.w3.org/1999/xlink" contentStyleType="text/css" height="310px" preserveAspectRatio="none" style="width:289px;height:310px;background:#FFFFFF;" version="1.1" viewBox="0 0 289 310" width="289px" zoomAndPan="magnify"><defs/><g><!--MD5=[344e176d75da7a2967d313ec2f2b6a67]
class User::Private--><g id="elem_User::Private"><rect codeLine="3" fill="#F1F1F1" height="83.2188" id="User::Private" rx="2.5" ry="2.5" style="stroke:#181818;stroke-width:0.5;" width="131" x="80" y="7"/><ellipse cx="103.1" cy="23" fill="#ADD1B2" rx="11" ry="11" style="stroke:#181818;stroke-width:1.0;"/><path d="M105.8656,18.875 Q106.0219,18.6563 106.2094,18.5469 Q106.3969,18.4375 106.6156,18.4375 Q106.9906,18.4375 107.225,18.6953 Q107.4594,18.9531 107.4594,19.5625 L107.4594,21.0156 Q107.4594,21.625 107.225,21.8906 Q106.9906,22.1563 106.6156,22.1563 Q106.2719,22.1563 106.0688,21.9531 Q105.8656,21.7656 105.7563,21.25 Q105.7094,20.8906 105.5219,20.7031 Q105.1938,20.3281 104.5844,20.1094 Q103.975,19.8906 103.35,19.8906 Q102.5844,19.8906 101.9516,20.2188 Q101.3188,20.5469 100.8266,21.2969 Q100.3344,22.0469 100.3344,23.0781 L100.3344,24.1719 Q100.3344,25.4063 101.225,26.2266 Q102.1156,27.0469 103.7094,27.0469 Q104.6469,27.0469 105.3031,26.7969 Q105.6938,26.6406 106.1156,26.2031 Q106.3813,25.9375 106.5297,25.8594 Q106.6781,25.7813 106.8813,25.7813 Q107.2094,25.7813 107.4672,26.0391 Q107.725,26.2969 107.725,26.6406 Q107.725,26.9844 107.3813,27.3906 Q106.8813,27.9688 106.0844,28.2969 Q105.0063,28.75 103.7094,28.75 Q102.1938,28.75 100.9906,28.125 Q100.0063,27.625 99.3188,26.5547 Q98.6313,25.4844 98.6313,24.2031 L98.6313,23.0469 Q98.6313,21.7188 99.2484,20.5703 Q99.8656,19.4219 100.9594,18.8047 Q102.0531,18.1875 103.2875,18.1875 Q104.0219,18.1875 104.6703,18.3516 Q105.3188,18.5156 105.8656,18.875 Z " fill="#000000"/><text fill="#000000" font-family="sans-serif" font-size="14" lengthAdjust="spacing" textLength="81" x="118.9" y="28.7285">User::Private</text><line style="stroke:#181818;stroke-width:0.5;" x1="81" x2="210" y1="39" y2="39"/><ellipse cx="91" cy="53.3047" fill="none" rx="3" ry="3" style="stroke:#038048;stroke-width:1.0;"/><text fill="#000000" font-family="sans-serif" font-size="14" lengthAdjust="spacing" textLength="105" x="100" y="57.5332">std::string name;</text><ellipse cx="91" cy="70.9141" fill="none" rx="3" ry="3" style="stroke:#038048;stroke-width:1.0;"/><text fill="#000000" font-family="sans-serif" font-size="14" lengthAdjust="spacing" textLength="47" x="100" y="75.1426">int age;</text><line style="stroke:#181818;stroke-width:0.5;" x1="81" x2="210" y1="82.2188" y2="82.2188"/></g><!--MD5=[3fd616f346a44cd59a91eb10b19e157c]
class User--><g id="elem_User"><rect codeLine="8" fill="#F1F1F1" height="153.6563" id="User" rx="2.5" ry="2.5" style="stroke:#181818;stroke-width:0.5;" width="273" x="9" y="150"/><ellipse cx="126.75" cy="166" fill="#ADD1B2" rx="11" ry="11" style="stroke:#181818;stroke-width:1.0;"/><path d="M129.5156,161.875 Q129.6719,161.6563 129.8594,161.5469 Q130.0469,161.4375 130.2656,161.4375 Q130.6406,161.4375 130.875,161.6953 Q131.1094,161.9531 131.1094,162.5625 L131.1094,164.0156 Q131.1094,164.625 130.875,164.8906 Q130.6406,165.1563 130.2656,165.1563 Q129.9219,165.1563 129.7188,164.9531 Q129.5156,164.7656 129.4063,164.25 Q129.3594,163.8906 129.1719,163.7031 Q128.8438,163.3281 128.2344,163.1094 Q127.625,162.8906 127,162.8906 Q126.2344,162.8906 125.6016,163.2188 Q124.9688,163.5469 124.4766,164.2969 Q123.9844,165.0469 123.9844,166.0781 L123.9844,167.1719 Q123.9844,168.4063 124.875,169.2266 Q125.7656,170.0469 127.3594,170.0469 Q128.2969,170.0469 128.9531,169.7969 Q129.3438,169.6406 129.7656,169.2031 Q130.0313,168.9375 130.1797,168.8594 Q130.3281,168.7813 130.5313,168.7813 Q130.8594,168.7813 131.1172,169.0391 Q131.375,169.2969 131.375,169.6406 Q131.375,169.9844 131.0313,170.3906 Q130.5313,170.9688 129.7344,171.2969 Q128.6563,171.75 127.3594,171.75 Q125.8438,171.75 124.6406,171.125 Q123.6563,170.625 122.9688,169.5547 Q122.2813,168.4844 122.2813,167.2031 L122.2813,166.0469 Q122.2813,164.7188 122.8984,163.5703 Q123.5156,162.4219 124.6094,161.8047 Q125.7031,161.1875 126.9375,161.1875 Q127.6719,161.1875 128.3203,161.3516 Q128.9688,161.5156 129.5156,161.875 Z " fill="#000000"/><text fill="#000000" font-family="sans-serif" font-size="14" lengthAdjust="spacing" textLength="29" x="147.25" y="171.7285">User</text><line style="stroke:#181818;stroke-width:0.5;" x1="10" x2="281" y1="182" y2="182"/><polygon fill="none" points="20,191.3047,24,195.3047,20,199.3047,16,195.3047" style="stroke:#B38D22;stroke-width:1.0;"/><text fill="#000000" font-family="sans-serif" font-size="14" lengthAdjust="spacing" textLength="200" x="29" y="200.5332">d_ptr : std::unique_ptr&lt;Private&gt;</text><line style="stroke:#181818;stroke-width:0.5;" x1="10" x2="281" y1="207.6094" y2="207.6094"/><ellipse cx="20" cy="221.9141" fill="#84BE84" rx="3" ry="3" style="stroke:#038048;stroke-width:1.0;"/><text fill="#000000" font-family="sans-serif" font-size="14" lengthAdjust="spacing" textLength="39" x="29" y="226.1426">User()</text><ellipse cx="20" cy="239.5234" fill="#84BE84" rx="3" ry="3" style="stroke:#038048;stroke-width:1.0;"/><text fill="#000000" font-family="sans-serif" font-size="14" lengthAdjust="spacing" textLength="149" x="29" y="243.752">std::string name() const</text><ellipse cx="20" cy="257.1328" fill="#84BE84" rx="3" ry="3" style="stroke:#038048;stroke-width:1.0;"/><text fill="#000000" font-family="sans-serif" font-size="14" lengthAdjust="spacing" textLength="91" x="29" y="261.3613">int age() const</text><ellipse cx="20" cy="274.7422" fill="#84BE84" rx="3" ry="3" style="stroke:#038048;stroke-width:1.0;"/><text fill="#000000" font-family="sans-serif" font-size="14" lengthAdjust="spacing" textLength="131" x="29" y="278.9707">void setAge (int age)</text><ellipse cx="20" cy="292.3516" fill="#84BE84" rx="3" ry="3" style="stroke:#038048;stroke-width:1.0;"/><text fill="#000000" font-family="sans-serif" font-size="14" lengthAdjust="spacing" textLength="247" x="29" y="296.5801">void setName (const std::string &amp;name)</text></g><!--MD5=[44262d6ac6df0a2bd1ec1435b1b26a5e]
reverse link User::Private to User--><g id="link_User::Private_User"><path codeLine="20" d="M145.5,103.88 C145.5,118.44 145.5,134.44 145.5,149.93 " fill="none" id="User::Private-backto-User" style="stroke:#181818;stroke-width:1.0;"/><polygon fill="none" points="145.5,90.44,141.5,96.44,145.5,102.44,149.5,96.44,145.5,90.44" style="stroke:#181818;stroke-width:1.0;"/></g><!--MD5=[bec559988ae9a592b45aad0acafabf0d]
@startuml

/' Objects '/
class User::Private {
  +std::string name;
  +int age;
}

class User {
  +User()
  +std::string name() const
  +int age() const
  +void setAge (int age)
  +void setName (const std::string &name)
  #d_ptr : std::unique_ptr<Private>
}

/' Inheritance relationships '/

/' Aggregation relationships '/
.User::Private o- - .User

/' Nested objects '/

@enduml

@startuml

class User::Private {
  +std::string name;
  +int age;
}

class User {
  +User()
  +std::string name() const
  +int age() const
  +void setAge (int age)
  +void setName (const std::string &name)
  #d_ptr : std::unique_ptr<Private>
}


.User::Private o- - .User


@enduml

PlantUML version 1.2022.7(Mon Aug 22 19:01:30 CEST 2022)
(GPL source distribution)
Java Runtime: Java(TM) SE Runtime Environment
JVM: Java HotSpot(TM) 64-Bit Server VM
Default Encoding: Cp1252
Language: fr
Country: FR
--></g></svg>